<svg width="32" height="32" viewBox="0 0 32 32" fill="none" xmlns="http://www.w3.org/2000/svg">
  <!-- Background -->
  <rect width="32" height="32" rx="8" fill="#7C3AED"/>
  
  <!-- Brain Icon (simplified for small size) -->
  <g stroke="#FFFFFF" stroke-width="1.5" stroke-linecap="round" stroke-linejoin="round" fill="none" transform="translate(4, 4)">
    <path d="M12 2 C7 2, 3 6, 3 12 C3 18, 7 22, 12 22 C17 22, 21 18, 21 12 C21 6, 17 2, 12 2Z"/>
    <path d="M12 2 L12 22"/>
    <path d="M9 5 C7 7, 6 10, 7 12"/>
    <path d="M5 8 C4 11, 4 14, 5 17"/>
    <path d="M8 11 C6 13, 6 16, 8 18"/>
    <path d="M15 5 C17 7, 18 10, 17 12"/>
    <path d="M19 8 C20 11, 20 14, 19 17"/>
    <path d="M16 11 C18 13, 18 16, 16 18"/>
  </g>
</svg>
