<svg width="512" height="512" viewBox="0 0 512 512" fill="none" xmlns="http://www.w3.org/2000/svg">
  <!-- Background -->
  <rect width="512" height="512" rx="112" fill="url(#explorer-gradient)"/>
  
  <!-- Brain Icon -->
  <g stroke="#FFFFFF" stroke-width="16" stroke-linecap="round" stroke-linejoin="round" fill="none" transform="translate(128, 128) scale(5.12)">
    <path d="M25 5 C15 5, 6 12.5, 6 25 C6 37.5, 15 45, 25 45 C35 45, 44 37.5, 44 25 C44 12.5, 35 5, 25 5Z"/>
    <path d="M25 5 L25 45"/>
    <path d="M20 11 C16 14, 14 20, 16 25"/>
    <path d="M12 17.5 C9 22.5, 9 29, 12 34"/>
    <path d="M17.5 22.5 C14 26, 14 31, 17.5 36"/>
    <path d="M14 37.5 C16 41, 20 42.5, 23 41"/>
    <path d="M20 27.5 C18 30, 18 34, 20 36"/>
    <path d="M30 11 C34 14, 36 20, 34 25"/>
    <path d="M38 17.5 C41 22.5, 41 29, 38 34"/>
    <path d="M32.5 22.5 C36 26, 36 31, 32.5 36"/>
    <path d="M36 37.5 C34 41, 30 42.5, 27 41"/>
    <path d="M30 27.5 C32 30, 32 34, 30 36"/>
  </g>
  
  <defs>
    <linearGradient id="explorer-gradient" x1="0" y1="0" x2="512" y2="512">
      <stop offset="0%" stop-color="#7C3AED"/>
      <stop offset="100%" stop-color="#A855F7"/>
    </linearGradient>
  </defs>
</svg>
